<svg xmlns="http://www.w3.org/2000/svg" viewBox="0 0 64 64">
  <defs>
    <linearGradient id="g" x1="0" x2="1" y1="0" y2="1">
      <stop offset="0%" stop-color="#0ce0ff" />
      <stop offset="100%" stop-color="#57ffbe" />
    </linearGradient>
  </defs>
  <rect x="4" y="4" width="56" height="56" rx="14" fill="#0b0f16" />
  <rect x="5" y="5" width="54" height="54" rx="13" fill="none" stroke="url(#g)" stroke-width="2" />
  <path d="M18 18h28a6 6 0 0 1 6 6v13a6 6 0 0 1-6 6H33l-8 7v-7h-7a6 6 0 0 1-6-6V24a6 6 0 0 1 6-6z"
        fill="none" stroke="url(#g)" stroke-width="4" stroke-linecap="round" stroke-linejoin="round" />
  <circle cx="26" cy="31" r="2" fill="url(#g)" />
  <circle cx="33" cy="31" r="2" fill="url(#g)" />
  <circle cx="40" cy="31" r="2" fill="url(#g)" />
</svg>
